<?xml version="1.0" encoding="UTF-8" standalone="no"?>
<!-- Created with Inkscape (http://www.inkscape.org/) -->

<svg
   width="239.04686"
   height="241.40434"
   viewBox="0 0 246.92065 357.59369"
   version="1.1"
   id="svg5"
   inkscape:version="1.1.1 (3bf5ae0d25, 2021-09-20)"
   sodipodi:docname="Celtic_North_Star.svg"
   xmlns:inkscape="http://www.inkscape.org/namespaces/inkscape"
   xmlns:sodipodi="http://sodipodi.sourceforge.net/DTD/sodipodi-0.dtd"
   xmlns="http://www.w3.org/2000/svg"
   xmlns:svg="http://www.w3.org/2000/svg">
  <sodipodi:namedview
     id="namedview7"
     pagecolor="#ffffff"
     bordercolor="#111111"
     borderopacity="1"
     inkscape:pageshadow="0"
     inkscape:pageopacity="0"
     inkscape:pagecheckerboard="1"
     inkscape:document-units="mm"
     showgrid="false"
     inkscape:snap-smooth-nodes="true"
     inkscape:snap-intersection-paths="true"
     showguides="false"
     inkscape:zoom="1.4142136"
     inkscape:cx="-54.800774"
     inkscape:cy="31.466251"
     inkscape:window-width="1920"
     inkscape:window-height="1001"
     inkscape:window-x="-9"
     inkscape:window-y="-9"
     inkscape:window-maximized="1"
     inkscape:current-layer="g3996" />
  <defs
     id="defs2" />
  <g
     inkscape:label="Livello 1"
     inkscape:groupmode="layer"
     id="layer1"
     transform="translate(-9.6749634,-6.0696799)">
    <g
       id="g6800"
       style="stroke-width:0.297;stroke-miterlimit:4;stroke-dasharray:none" />
    <g
       id="g6806"
       transform="matrix(0,-1,-1,0,253.5,253.5)"
       style="stroke-width:0.297;stroke-miterlimit:4;stroke-dasharray:none" />
    <g
       id="g3996">
      <g
         id="g5991"
         transform="matrix(0.2610432,0,0,0.2610432,116.35538,70.970169)">
        <g
           id="g1736"
           style="stroke-width:16.4973;stroke-miterlimit:4;stroke-dasharray:none">
          <path
             style="font-variation-settings:normal;fill:#ffffff;fill-opacity:1;stroke:#000000;stroke-width:16.4973;stroke-linecap:round;stroke-linejoin:miter;stroke-miterlimit:4;stroke-dasharray:none;stroke-dashoffset:0;stroke-opacity:1;stop-color:#000000"
             d="m 79.141395,-160.69695 -31.005669,-31.01308 0.807683,-3.15579 c 2.443321,-9.54652 4.983019,-15.69223 9.966755,-24.11812 l 1.101076,-1.86157 31.003601,31.01102 31.003599,31.01101 -0.80768,3.15578 c -1.83003,7.15026 -3.63385,12.17186 -6.2262,17.33292 -0.94246,1.87631 -3.52845,6.5555 -4.3477,7.86688 l -0.48979,0.78403 z"
             id="path23861" />
          <path
             style="fill:#ffffff;fill-opacity:1;stroke:#000000;stroke-width:16.4973;stroke-linecap:round;stroke-linejoin:miter;stroke-miterlimit:4;stroke-dasharray:none;stroke-opacity:1"
             d="m 240.99266,433.52913 c 0,0 21.14564,-23.4296 60.885,-61.182 5.94,-5.643 33.63143,3.9425 33.63143,3.9425 0,0 4.76955,-10.38166 6.48584,-15.81467 1.38764,-4.39262 3.05317,-13.47826 3.05317,-13.47826 0,0 -44.38151,-16.32275 -56.56217,-4.30205 l -69.6504,68.73569"
             id="path7091"
             sodipodi:nodetypes="cscacsc" />
          <path
             style="fill:#ffffff;fill-opacity:1;stroke:#000000;stroke-width:16.4973;stroke-linecap:round;stroke-linejoin:miter;stroke-miterlimit:4;stroke-dasharray:none;stroke-opacity:1"
             d="m 308.05649,411.49296 -22.51383,-22.51383 -22.275,22.275 22.275,22.275"
             id="path7206"
             sodipodi:nodetypes="cccc" />
          <path
             style="fill:#ffffff;fill-opacity:1;stroke:#000000;stroke-width:16.4973;stroke-linecap:round;stroke-linejoin:miter;stroke-miterlimit:4;stroke-dasharray:none;stroke-opacity:1"
             d="m 151.89266,388.97913 -66.825,-66.825 22.275,-22.275 66.825,66.825 -22.275,22.275"
             id="path7325" />
          <path
             style="fill:#ffffff;fill-opacity:1;stroke:#000000;stroke-width:16.4973;stroke-linecap:round;stroke-linejoin:miter;stroke-miterlimit:4;stroke-dasharray:none;stroke-opacity:1"
             d="m 174.16766,322.15413 66.825,66.825 22.275,-22.275 -66.825,-66.825 z"
             id="path8029" />
          <path
             style="fill:#ffffff;fill-opacity:1;stroke:#000000;stroke-width:16.4973;stroke-linecap:round;stroke-linejoin:miter;stroke-miterlimit:4;stroke-dasharray:none;stroke-opacity:1"
             d="m 132.27388,154.90707 c -16.31299,7.11832 -31.05177,17.44261 -47.206223,33.59706 l 22.275003,22.275 c 0,0 12.99054,-16.51436 35.19953,-27.81135 m 30.50884,-9.59317 c 10.35222,-0.9702 22.06899,3.6238 29.00938,11.26109 8.17827,8.99946 11.07327,23.3074 9.15058,35.31479 -3.61173,22.55548 -37.04333,57.65364 -37.04333,57.65364 l -44.55,44.55 22.275,22.275 44.55,-44.55 c 0,0 44.53772,-46.45026 47.4502,-77.38335 2.8172,-29.92128 -4.94965,-49.55631 -22.27351,-64.10151 -15.04951,-12.63565 -38.18073,-16.20912 -58.70799,-13.04414"
             id="path11144"
             sodipodi:nodetypes="cccccssccccasc" />
          <path
             style="fill:#ffffff;fill-opacity:1;stroke:#000000;stroke-width:16.4973;stroke-linecap:round;stroke-linejoin:miter;stroke-miterlimit:4;stroke-dasharray:none;stroke-opacity:1"
             d="m 85.06766,589.45413 c 0,0 23.4296,21.14564 61.182,60.885 5.643,5.94 -3.9425,33.63143 -3.9425,33.63143 0,0 10.38166,4.76955 15.81467,6.48584 4.39262,1.38764 13.47826,3.05317 13.47826,3.05317 0,0 16.32275,-44.38151 4.30205,-56.56217 L 107.16645,567.297"
             id="path5853"
             sodipodi:nodetypes="cscacsc" />
          <path
             style="fill:#ffffff;fill-opacity:1;stroke:#000000;stroke-width:16.4973;stroke-linecap:round;stroke-linejoin:miter;stroke-miterlimit:4;stroke-dasharray:none;stroke-opacity:1"
             d="m 107.10383,656.51796 23.64989,-22.51287 -23.41106,-22.84588 -22.275,22.84492"
             id="path5855"
             sodipodi:nodetypes="cccc" />
          <path
             style="fill:#ffffff;fill-opacity:1;stroke:#000000;stroke-width:16.4973;stroke-linecap:round;stroke-linejoin:miter;stroke-miterlimit:4;stroke-dasharray:none;stroke-opacity:1"
             d="m 129.61766,500.35413 66.825,-66.825 22.275,22.275 -66.825,66.825 -22.275,-22.275"
             id="path5859" />
          <path
             id="path5861"
             style="fill:#ffffff;fill-opacity:1;stroke:#000000;stroke-width:16.4973;stroke-linecap:round;stroke-linejoin:round;stroke-miterlimit:4;stroke-dasharray:none;stroke-opacity:1"
             d="m 500.86766,433.52913 c 0,0 -105.47296,40.47818 -165.35857,57.2395 -20.93427,5.85927 -27.69143,9.5855 -33.63143,3.9425 l -16.335,-16.632 -22.275,22.275 25.21827,24.00948 c 11.73123,12.17627 56.73625,-2.85111 56.73625,-2.85111 l 251.58546,-87.63857 v -0.6896 L 373.095,355.74533 c 0,0 -1.89995,9.49863 -3.29196,14.13015 -1.65822,5.5173 -6.00801,16.20543 -6.00801,16.20543 l 137.07263,47.44822"
             sodipodi:nodetypes="csccccccccscc" />
          <path
             id="path5865"
             style="fill:#ffffff;fill-opacity:1;stroke:#000000;stroke-width:16.4973;stroke-linecap:round;stroke-linejoin:miter;stroke-miterlimit:4;stroke-dasharray:none;stroke-opacity:1"
             d="m 285.54266,433.52913 -66.825,66.825 22.275,22.275 89.1,-89.1 m 0,0 c 22.94667,-22.94667 34.12875,-43.03774 41.06953,-68.84077 6.17479,-22.95546 3.74155,-50.19886 -10.96058,-67.70961 -12.72706,-15.15839 -29.35064,-23.00152 -53.35268,-22.83769 -3.42886,0.0234 -7.00869,0.21053 -10.74884,0.56268 -30.9331,2.91248 -77.38243,47.45039 -77.38243,47.45039 l 22.275,22.275 c 0,0 35.09848,-33.43206 57.65397,-37.04379 12.00738,-1.92268 26.3157,0.97246 35.31515,9.15074 7.99648,7.2668 12.65496,19.7694 11.08529,30.4599 -5.8053,39.53776 -37.22941,64.25815 -37.22941,64.25815 l -22.275,22.275" />
          <path
             style="fill:#ffffff;fill-opacity:1;stroke:#000000;stroke-width:16.4973;stroke-linecap:round;stroke-linejoin:miter;stroke-miterlimit:4;stroke-dasharray:none;stroke-opacity:1"
             d="m 196.44266,522.62913 -66.825,66.825 22.275,22.275 66.825,-66.825 z"
             id="path5869" />
          <path
             id="path5871"
             style="fill:#ffffff;fill-opacity:1;stroke:#000000;stroke-width:16.4973;stroke-linecap:round;stroke-linejoin:miter;stroke-miterlimit:4;stroke-dasharray:none;stroke-opacity:1"
             d="m 107.34266,433.52913 44.55,44.55 22.275,-22.275 -22.275,-22.275 m -44.55,0 89.1,-89.1 22.275,22.275 -66.825,66.825" />
          <path
             style="fill:#ffffff;fill-opacity:1;stroke:#000000;stroke-width:16.4973;stroke-linecap:round;stroke-linejoin:miter;stroke-miterlimit:4;stroke-dasharray:none;stroke-opacity:1"
             d="m 345.22218,521.5125 c 0.9702,10.35222 -3.6238,22.06899 -11.26109,29.00938 -8.99946,8.17827 -23.3074,11.07327 -35.31479,9.15058 -22.55548,-3.61173 -57.65364,-37.04333 -57.65364,-37.04333 l -44.55,-44.55 -22.275,22.275 44.55,44.55 c 0,0 46.45026,44.53772 77.38335,47.4502 29.92128,2.8172 49.55631,-4.94965 64.10151,-22.27351 12.63565,-15.04951 16.20912,-37.6112 13.04414,-58.13846 l -28.02448,9.57014"
             id="path7446"
             sodipodi:nodetypes="cssccccsscc" />
          <path
             style="fill:#ffffff;fill-opacity:1;stroke:#000000;stroke-width:16.4973;stroke-linecap:round;stroke-linejoin:miter;stroke-miterlimit:4;stroke-dasharray:none;stroke-opacity:1"
             d="m 335.50909,490.76863 c -11.29699,-22.20899 -27.69143,-34.9645 -27.69143,-34.9645 l 22.275,-22.275 c 16.15445,16.15445 27.61623,32.02969 34.73455,48.34269 z"
             id="path5875"
             sodipodi:nodetypes="ccccc" />
          <path
             style="fill:#ffffff;fill-opacity:1;stroke:#000000;stroke-width:16.4973;stroke-linecap:round;stroke-linejoin:miter;stroke-miterlimit:4;stroke-dasharray:none;stroke-opacity:1"
             d="m -70.85734,433.52913 c 0,0 -21.14564,23.4296 -60.885,61.182 -5.94,5.643 -33.63143,-3.9425 -33.63143,-3.9425 0,0 -4.76955,10.38166 -6.48584,15.81467 -1.38764,4.39262 -3.05317,13.47826 -3.05317,13.47826 0,0 44.38151,16.32275 56.56217,4.30205 l 69.6504,-68.73569"
             id="path5881"
             sodipodi:nodetypes="cscacsc" />
          <path
             style="fill:#ffffff;fill-opacity:1;stroke:#000000;stroke-width:16.4973;stroke-linecap:round;stroke-linejoin:miter;stroke-miterlimit:4;stroke-dasharray:none;stroke-opacity:1"
             d="m -137.92117,455.5653 22.51287,23.08102 22.84588,-22.27131 -22.84492,-22.84588"
             id="path5883"
             sodipodi:nodetypes="cccc" />
          <path
             style="fill:#ffffff;fill-opacity:1;stroke:#000000;stroke-width:16.4973;stroke-linecap:round;stroke-linejoin:miter;stroke-miterlimit:4;stroke-dasharray:none;stroke-opacity:1"
             d="m 18.24266,478.07913 66.825,66.825 -22.275,22.275 -66.825,-66.825 22.275,-22.275"
             id="path5887" />
          <path
             id="path5889"
             style="fill:#ffffff;fill-opacity:1;stroke:#000000;stroke-width:16.4973;stroke-linecap:round;stroke-linejoin:round;stroke-miterlimit:4;stroke-dasharray:none;stroke-opacity:1"
             d="m 85.06766,849.32913 c 0,0 -40.478184,-105.47296 -57.23951,-165.35857 -5.85927,-20.93427 -9.58549,-27.69143 -3.94249,-33.63143 l 16.632,-16.335 -22.275,-22.275 -24.00948,25.21827 c -12.17627,11.73123 2.85111,56.73625 2.85111,56.73625 l 87.638566,251.58546 h 0.689604 l 77.439,-223.71264 c 0,0 -9.49863,-1.89995 -14.13015,-3.29196 -5.5173,-1.65822 -16.20543,-6.00801 -16.20543,-6.00801 L 85.06766,849.32913"
             sodipodi:nodetypes="csccccccccscc" />
          <path
             id="path5891"
             style="fill:#ffffff;fill-opacity:1;stroke:#000000;stroke-width:16.4973;stroke-linecap:round;stroke-linejoin:miter;stroke-miterlimit:4;stroke-dasharray:none;stroke-opacity:1"
             d="m 85.06766,544.90413 -44.55,44.55 22.275,22.275 22.275,-22.275 m 0,-44.55 22.275,-22.275 22.275,22.275 -44.55,44.55" />
          <path
             id="path5893"
             style="fill:#ffffff;fill-opacity:1;stroke:#000000;stroke-width:16.4973;stroke-linecap:round;stroke-linejoin:miter;stroke-miterlimit:4;stroke-dasharray:none;stroke-opacity:1"
             d="m 85.06766,634.00413 -66.825,-66.825 -22.275,22.275 89.1,89.1 m 0,0 c 22.94666,22.94667 43.03773,34.12874 68.84077,41.06953 22.95546,6.17479 50.19886,3.74155 67.70961,-10.96058 15.15839,-12.72706 23.00152,-29.35063 22.83769,-53.35267 -0.0234,-3.42887 -0.21053,-7.0087 -0.56268,-10.74885 -2.91248,-30.9331 -47.45039,-77.38243 -47.45039,-77.38243 l -22.275,22.275 c 0,0 33.43206,35.09848 37.04379,57.65397 1.92268,12.00738 -0.97246,26.3157 -9.15074,35.31515 -7.2668,7.99648 -19.7694,12.65496 -30.4599,11.08529 -39.53776,-5.80529 -64.25815,-37.22941 -64.25815,-37.22941 l -22.275,-22.275" />
          <path
             style="fill:#ffffff;fill-opacity:1;stroke:#000000;stroke-width:16.4973;stroke-linecap:round;stroke-linejoin:miter;stroke-miterlimit:4;stroke-dasharray:none;stroke-opacity:1"
             d="m -4.03234,544.90413 -66.825,-66.825 -22.275,22.275 66.825,66.825 z"
             id="path5897" />
          <path
             id="path5899"
             style="fill:#ffffff;fill-opacity:1;stroke:#000000;stroke-width:16.4973;stroke-linecap:round;stroke-linejoin:miter;stroke-miterlimit:4;stroke-dasharray:none;stroke-opacity:1"
             d="m 85.06766,455.80413 -44.55,44.55 22.275,22.275 22.275,-22.275 m 0,-44.55 89.1,89.1 -22.275,22.275 -66.825,-66.825" />
          <path
             style="fill:#ffffff;fill-opacity:1;stroke:#000000;stroke-width:16.4973;stroke-linecap:round;stroke-linejoin:miter;stroke-miterlimit:4;stroke-dasharray:none;stroke-opacity:1"
             d="m -2.91571,693.68365 c -10.35222,0.9702 -22.06899,-3.6238 -29.00938,-11.26109 -8.17827,-8.99946 -11.07327,-23.3074 -9.15058,-35.31479 3.61173,-22.55548 37.04333,-57.65364 37.04333,-57.65364 l 44.55,-44.55 -22.275,-22.275 -44.55,44.55 c 0,0 -44.53772,46.45026 -47.4502,77.38335 -2.8172,29.92128 4.94965,49.55631 22.27351,64.10151 15.04951,12.63565 37.6112,16.20912 58.13846,13.04414 l -9.57014,-28.02448"
             id="path8311"
             sodipodi:nodetypes="cssccccsscc" />
          <path
             style="fill:#ffffff;fill-opacity:1;stroke:#000000;stroke-width:16.4973;stroke-linecap:round;stroke-linejoin:miter;stroke-miterlimit:4;stroke-dasharray:none;stroke-opacity:1"
             d="m 27.59313,684.09048 c 22.208992,-11.29699 35.19953,-27.81135 35.19953,-27.81135 l 22.275003,22.275 C 68.913214,694.70858 53.037965,706.17037 36.724969,713.28869 L 27.82815,683.97056"
             id="path5903"
             sodipodi:nodetypes="ccccc" />
          <path
             id="path5907"
             style="fill:#ffffff;fill-opacity:1;stroke:#000000;stroke-width:16.4973;stroke-linecap:round;stroke-linejoin:round;stroke-miterlimit:4;stroke-dasharray:none;stroke-opacity:1"
             d="m 85.067658,17.72913 -47.44822,137.07263 c 0,0 -10.688128,-4.34979 -16.205428,-6.00801 -4.63152,-1.39201 -14.13015,-3.29196 -14.13015,-3.29196 L 84.722858,-78.21085 h 0.68961 l 87.638572,251.58547 c 0,0 15.02737,45.00501 2.8511,56.73624 l -24.00948,25.21827 -22.275,-22.275 16.632,-16.335 c 5.643,-5.94 1.91678,-12.69716 -3.94249,-33.63143 C 125.54585,123.20209 85.067658,17.72913 85.067658,17.72913"
             sodipodi:nodetypes="ccsccccccccsc" />
          <path
             style="fill:#ffffff;fill-opacity:1;stroke:#000000;stroke-width:16.4973;stroke-linecap:round;stroke-linejoin:miter;stroke-miterlimit:4;stroke-dasharray:none;stroke-opacity:1"
             d="m 85.067658,277.60413 c 0,0 -23.4296,-21.14564 -61.181998,-60.885 -5.643,-5.94 3.9425,-33.63143 3.9425,-33.63143 0,0 -10.38166,-4.76955 -15.81467,-6.48584 -4.39262,-1.38764 -13.47826,-3.05317 -13.47826,-3.05317 0,0 -16.32275,44.38151 -4.30205,56.56217 l 68.735688,69.6504"
             id="path5909"
             sodipodi:nodetypes="cscacsc" />
          <path
             style="fill:#ffffff;fill-opacity:1;stroke:#000000;stroke-width:16.4973;stroke-linecap:round;stroke-linejoin:miter;stroke-miterlimit:4;stroke-dasharray:none;stroke-opacity:1"
             d="m 63.031488,210.5403 -22.51383,22.51383 22.275,22.275 22.275,-22.275"
             id="path5911"
             sodipodi:nodetypes="cccc" />
          <path
             id="path5913"
             style="fill:#ffffff;fill-opacity:1;stroke:#000000;stroke-width:16.4973;stroke-linecap:round;stroke-linejoin:miter;stroke-miterlimit:4;stroke-dasharray:none;stroke-opacity:1"
             d="m 85.067658,322.15413 -22.275,22.275 -22.275,-22.275 44.55,-44.55 m 2e-6,44.55 44.55,-44.55 -22.275,-22.275 -22.275,22.275" />
          <path
             style="fill:#ffffff;fill-opacity:1;stroke:#000000;stroke-width:16.4973;stroke-linecap:round;stroke-linejoin:miter;stroke-miterlimit:4;stroke-dasharray:none;stroke-opacity:1"
             d="m 40.517658,366.70413 -66.824998,66.825 -22.275,-22.275 66.825,-66.825 22.274998,22.275"
             id="path5915" />
          <path
             id="path5917"
             style="fill:#ffffff;fill-opacity:1;stroke:#000000;stroke-width:16.4973;stroke-linecap:round;stroke-linejoin:round;stroke-miterlimit:4;stroke-dasharray:none;stroke-opacity:1"
             d="m -330.73234,433.52913 c 0,0 105.47296,-40.47819 165.35857,-57.23951 20.93426,-5.85927 27.69143,-9.58549 33.63143,-3.94249 l 16.335,16.632 22.275,-22.275 -25.21827,-24.00948 c -11.73123,-12.17627 -56.73625,2.8511 -56.73625,2.8511 l -251.58546,87.63857 v 0.68961 l 223.71264,77.439 c 0,0 1.89995,-9.49863 3.29196,-14.13015 1.65822,-5.5173 6.00801,-16.20543 6.00801,-16.20543 l -137.07263,-47.44822"
             sodipodi:nodetypes="csccccccccscc" />
          <path
             id="path5919"
             style="fill:#ffffff;fill-opacity:1;stroke:#000000;stroke-width:16.4973;stroke-linecap:round;stroke-linejoin:miter;stroke-miterlimit:4;stroke-dasharray:none;stroke-opacity:1"
             d="m -26.30734,433.52913 -44.55,-44.55 -22.275,22.275 22.275,22.275 m 44.55,0 22.275,22.275 -22.275,22.275 -44.55,-44.55" />
          <path
             id="path5921"
             style="fill:#ffffff;fill-opacity:1;stroke:#000000;stroke-width:16.4973;stroke-linecap:round;stroke-linejoin:miter;stroke-miterlimit:4;stroke-dasharray:none;stroke-opacity:1"
             d="m -115.40734,433.52913 66.825,-66.825 -22.275,-22.275 -89.1,89.1 m 0,0 c -22.94667,22.94666 -34.12875,43.03773 -41.06953,68.84077 -6.17479,22.95546 -3.74155,50.19887 10.96058,67.70962 12.72706,15.15838 29.35063,23.00151 53.35268,22.83768 3.42886,-0.0234 7.00869,-0.21053 10.74884,-0.56268 30.9331,-2.91248 77.38243,-47.45039 77.38243,-47.45039 l -22.275,-22.275 c 0,0 -35.09848,33.43206 -57.65397,37.04379 -12.00738,1.92269 -26.3157,-0.97245 -35.31515,-9.15074 -7.99648,-7.2668 -12.65496,-19.7694 -11.08529,-30.4599 5.80529,-39.53776 37.22941,-64.25815 37.22941,-64.25815 l 22.275,-22.275" />
          <path
             id="path5923"
             style="fill:#ffffff;fill-opacity:1;stroke:#000000;stroke-width:16.4973;stroke-linecap:round;stroke-linejoin:miter;stroke-miterlimit:4;stroke-dasharray:none;stroke-opacity:1"
             d="m 85.067658,411.25413 -89.099998,-89.1 22.275,-22.275 66.824998,66.825 m 2e-6,44.55 44.55,-44.55 -22.275,-22.275 -22.275,22.275" />
          <path
             style="fill:#ffffff;fill-opacity:1;stroke:#000000;stroke-width:16.4973;stroke-linecap:round;stroke-linejoin:miter;stroke-miterlimit:4;stroke-dasharray:none;stroke-opacity:1"
             d="m -26.30734,344.42913 66.824998,-66.825 -22.274998,-22.275 -66.825,66.825 z"
             id="path5925" />
          <path
             id="path5927"
             style="fill:#ffffff;fill-opacity:1;stroke:#000000;stroke-width:16.4973;stroke-linecap:round;stroke-linejoin:miter;stroke-miterlimit:4;stroke-dasharray:none;stroke-opacity:1"
             d="m 62.792658,433.52913 -44.549998,-44.55 -22.275,22.275 22.275,22.275 m 44.55,0 -89.1,89.1 -22.275,-22.275 66.825,-66.825" />
          <path
             id="path5929"
             style="fill:#ffffff;fill-opacity:1;stroke:#000000;stroke-width:16.4973;stroke-linecap:round;stroke-linejoin:miter;stroke-miterlimit:4;stroke-dasharray:none;stroke-opacity:1"
             d="M 85.06766,188.50413 C 62.120995,165.55746 42.029925,154.37538 16.22689,147.4346 c -22.95546,-6.17479 -50.19886,-3.74155 -67.70961,10.96058 -15.15839,12.72706 -23.00152,29.35064 -22.83769,53.35268 0.0234,3.42886 0.21053,7.00869 0.56268,10.74884 2.91248,30.9331 47.45039,77.38243 47.45039,77.38243 l 22.275,-22.275 c 0,0 -33.43206,-35.09848 -37.04379,-57.65397 -1.92268,-12.00738 0.97246,-26.3157 9.15074,-35.31515 7.2668,-7.99648 19.7694,-12.65496 30.4599,-11.08529 39.537756,5.80529 64.25815,37.22941 64.25815,37.22941 l 22.275,22.275 m 0,0 66.825,66.825 22.275,-22.275 -89.1,-89.1" />
          <path
             id="path6973"
             style="fill:#ffffff;fill-opacity:1;stroke:#000000;stroke-width:16.4973;stroke-linecap:round;stroke-linejoin:miter;stroke-miterlimit:4;stroke-dasharray:none;stroke-opacity:1"
             d="m -175.08686,345.54575 c -0.97021,-10.35222 3.6238,-22.06898 11.26109,-29.00937 8.99946,-8.17827 23.3074,-11.07327 35.31479,-9.15058 22.55548,3.61173 57.65364,37.04333 57.65364,37.04333 l 44.55,44.55 22.275,-22.275 -44.55,-44.55 c 0,0 -46.45026,-44.53772 -77.38335,-47.4502 -29.92128,-2.8172 -49.55631,4.94965 -64.10151,22.27351 -12.63565,15.0495 -16.20912,38.18072 -13.04414,58.70799 m -0.0546,-0.35848 28.07903,-9.7812" />
          <path
             id="path5931"
             style="fill:#ffffff;fill-opacity:1;stroke:#000000;stroke-width:16.4973;stroke-linecap:round;stroke-linejoin:miter;stroke-miterlimit:4;stroke-dasharray:none;stroke-opacity:1"
             d="m -165.37377,376.28962 -29.36933,8.84563 c 7.11833,16.31299 18.63053,32.23944 34.78497,48.39389 l 22.2771,-22.27709 c 0,0 -16.39574,-12.75343 -27.69274,-34.96243 z"
             sodipodi:nodetypes="ccccc" />
          <path
             id="path23605"
             style="fill:#ffffff;fill-opacity:1;stroke:#000000;stroke-width:16.4973;stroke-linecap:round;stroke-linejoin:round;stroke-miterlimit:4;stroke-dasharray:none;stroke-opacity:1"
             d="m 110.06113,-129.06994 c 0,0 5.69322,-9.10045 8.17157,-16.03865 3.85294,-10.78636 6.29554,-22.33574 6.24404,-33.78947 -0.0365,-8.11107 -1.87016,-16.26286 -4.63677,-23.8876 -2.7734,-7.64345 -11.78927,-21.3551 -11.78927,-21.3551 -0.49579,-0.78342 -2.76146,-5.41614 -1.02837,-7.7754 2.90613,-3.28785 13.22129,-8.22798 17.4776,-8.44267 1.8251,-0.0921 3.70306,1.62108 5.12727,2.99579 6.03386,5.82413 10.20338,13.52872 13.45227,21.25999 4.9362,11.74652 8.52624,24.46579 8.76975,37.20499 0.29088,15.2175 -3.48789,30.53634 -8.76975,44.81076 -3.18008,8.59428 -13.55325,23.91821 -13.55325,23.91821 h -0.26503 l -51.807866,-51.80786 m -0.579863,-42.30239 45.541679,45.54167 m -62.340451,-62.65796 c 0,0 -5.693213,9.10044 -8.171569,16.03865 -3.852932,10.78636 -6.295535,22.33573 -6.244036,33.78946 0.03647,8.11107 1.870156,16.26286 4.636765,23.8876 2.7734,7.64346 11.789277,21.35511 11.789277,21.35511 0.49579,0.78342 2.761453,5.41614 1.028371,7.7754 -2.906134,3.28785 -13.221291,8.22798 -17.477602,8.44267 -1.825099,0.0921 -3.703067,-1.62108 -5.127276,-2.99579 -6.033855,-5.82413 -10.203374,-13.52872 -13.452263,-21.25999 -4.936201,-11.74652 -8.52624,-24.46579 -8.769748,-37.205 -0.290881,-15.2175 3.487891,-30.53634 8.769748,-44.81075 3.180079,-8.59428 13.553247,-23.91822 13.553247,-23.91822 h 0.265027 l 51.80787,51.80787 m 0.579862,42.30238 -45.541674,-45.54167" />
          <path
             id="path879"
             style="fill:#ffffff;fill-opacity:1;stroke:#000000;stroke-width:16.4973;stroke-linecap:round;stroke-linejoin:round;stroke-miterlimit:4;stroke-dasharray:none;stroke-opacity:1"
             d="m 38.908364,1021.2052 c 0,0 9.100442,-5.6932 16.038649,-8.1716 10.786361,-3.8529 22.335732,-6.2955 33.789465,-6.244 8.111068,0.037 16.262862,1.8701 23.887602,4.6368 7.64345,2.7734 21.3551,11.7892 21.3551,11.7892 0.78342,0.4958 5.41614,2.7615 7.7754,1.0284 3.28785,-2.9061 8.22798,-13.2213 8.44267,-17.4776 0.0921,-1.8251 -1.62108,-3.7031 -2.99579,-5.1273 -5.82413,-6.03383 -13.52872,-10.20335 -21.25999,-13.45223 -11.74652,-4.93621 -24.46579,-8.52625 -37.204992,-8.76976 -15.217499,-0.29088 -30.536337,3.48789 -44.810755,8.76976 -8.594281,3.18007 -23.918215,13.55323 -23.918215,13.55323 v 0.265 l 51.807866,51.8079 m 42.302386,0.5799 -45.541672,-45.5417 m 62.657962,62.3404 c 0,0 -9.10044,5.6933 -16.03865,8.1716 -10.78636,3.8529 -22.335731,6.2955 -33.789464,6.244 -8.111068,-0.036 -16.262858,-1.8701 -23.8876,-4.6367 -7.643456,-2.7734 -21.355106,-11.7893 -21.355106,-11.7893 -0.783421,-0.4958 -5.41614,-2.7614 -7.7754,-1.0284 -3.28785,2.9062 -8.227976,13.2213 -8.442665,17.4776 -0.09206,1.8251 1.621079,3.7031 2.995784,5.1273 5.82413,6.0339 13.528721,10.2034 21.259996,13.4523 11.746514,4.9362 24.465784,8.5262 37.204991,8.7697 15.217499,0.2909 30.536344,-3.4879 44.810754,-8.7697 8.59428,-3.1801 23.91822,-13.5533 23.91822,-13.5533 v -0.265 l -51.80787,-51.8079 m -42.302384,-0.5798 45.541674,45.5416" />
          <path
             style="font-variation-settings:normal;fill:#ffffff;fill-opacity:1;stroke:#000000;stroke-width:16.4973;stroke-linecap:round;stroke-linejoin:miter;stroke-miterlimit:4;stroke-dasharray:none;stroke-dashoffset:0;stroke-opacity:1;stop-color:#000000"
             d="m 70.535374,1052.125 31.013076,31.0056 3.15579,-0.8077 c 9.54652,-2.4433 15.69223,-4.983 24.11812,-9.9667 l 1.86157,-1.1011 -31.011016,-31.0036 -31.011013,-31.0036 -3.15578,0.8077 c -7.15026,1.83 -12.17186,3.6338 -17.332918,6.2262 -1.876314,0.9424 -6.555506,3.5284 -7.866883,4.3477 l -0.784029,0.4898 z"
             id="path881" />
          <path
             id="path2427"
             style="fill:#ffffff;fill-opacity:1;stroke:#000000;stroke-width:16.4973;stroke-linecap:round;stroke-linejoin:miter;stroke-miterlimit:4;stroke-dasharray:none;stroke-opacity:1"
             d="m -494.14254,451.42154 -5.11618,39.99682 m -30.16306,-46.57165 30.16306,46.57165 h 26.68117 l 19.61991,-115.50195 -28.93815,-0.23671 -12.24675,75.19393 -35.27924,-47.11955 m -35.27919,47.66746 5.11618,39.99682 m 30.16301,-46.57165 -30.16301,46.57165 h -26.68118 l -19.6199,-115.50195 28.93816,-0.23671 12.24674,75.19393 35.27919,-47.11955" />
          <path
             id="path3826"
             style="fill:#ffffff;fill-opacity:1;stroke:#000000;stroke-width:16.4973;stroke-linecap:round;stroke-linejoin:miter;stroke-miterlimit:4;stroke-dasharray:none;stroke-opacity:1"
             d="m 656.79792,468.46355 -39.99682,-5.11617 m 46.57165,-30.16306 -46.57165,30.16306 v 26.68116 l 115.50197,19.61992 0.23669,-28.93816 -75.19392,-12.24675 47.11955,-35.27923 m -47.66747,-35.27919 -39.99682,5.11617 m 46.57165,30.16302 -46.57165,-30.16302 v -26.68116 l 115.50197,-19.61992 0.23669,28.93817 -75.19392,12.24674 47.11955,35.27919" />
          <path
             style="fill:#ffffff;fill-opacity:1;stroke:#000000;stroke-width:16.4973;stroke-linecap:round;stroke-linejoin:miter;stroke-miterlimit:4;stroke-dasharray:none;stroke-opacity:1"
             d="m 196.44442,388.97739 -22.27951,22.27467 66.83129,66.83124 22.26597,-22.27706 -66.81775,-66.82885"
             id="path1184" />
        </g>
      </g>
    </g>
  </g>
</svg>
